<mxfile host="app.diagrams.net" modified="2024-05-29T10:58:07.411Z" agent="Mozilla/5.0 (X11; Ubuntu; Linux x86_64; rv:125.0) Gecko/20100101 Firefox/125.0" version="24.4.9" etag="g_X1t_D8gSfhZB31H9Uw" type="github">
  <diagram name="Page-1" id="YwJ7aMM6xwwMXF04va_B">
    <mxGraphModel>
      <root>
        <mxCell id="0" />
        <mxCell id="1" parent="0" />
      </root>
    </mxGraphModel>
  </diagram>
</mxfile>
